<?xml version="1.0" encoding="UTF-8" standalone="no"?>
<!-- Created with Inkscape (http://www.inkscape.org/) -->

<svg
   xmlns:dc="http://purl.org/dc/elements/1.1/"
   xmlns:cc="http://creativecommons.org/ns#"
   xmlns:rdf="http://www.w3.org/1999/02/22-rdf-syntax-ns#"
   xmlns:svg="http://www.w3.org/2000/svg"
   xmlns="http://www.w3.org/2000/svg"
   xmlns:xlink="http://www.w3.org/1999/xlink"
   xmlns:sodipodi="http://sodipodi.sourceforge.net/DTD/sodipodi-0.dtd"
   xmlns:inkscape="http://www.inkscape.org/namespaces/inkscape"
   width="610.3291"
   height="408.59698"
   id="svg2"
   version="1.1"
   inkscape:version="0.48.5 r10040"
   sodipodi:docname="audacy_logo.svg"
   inkscape:export-xdpi="90"
   inkscape:export-ydpi="90">
  <defs
     id="defs4">
    <linearGradient
       id="linearGradient2996">
      <stop
         style="stop-color:#00d8f8;stop-opacity:1;"
         offset="0"
         id="stop2998" />
      <stop
         style="stop-color:#000072;stop-opacity:1;"
         offset="1"
         id="stop3000" />
    </linearGradient>
    <radialGradient
       inkscape:collect="always"
       xlink:href="#linearGradient2996"
       id="radialGradient3010"
       cx="529.13983"
       cy="741.38184"
       fx="529.13983"
       fy="741.38184"
       r="217.32422"
       gradientTransform="matrix(0.21530058,1.2810861,-6.5487406,1.1010773,4822.3208,-516.40308)"
       gradientUnits="userSpaceOnUse" />
    <radialGradient
       inkscape:collect="always"
       xlink:href="#linearGradient2996"
       id="radialGradient3046"
       cx="172.7095"
       cy="588.83319"
       fx="172.7095"
       fy="588.83319"
       r="25.578272"
       gradientTransform="matrix(18.850657,8.4316708,-0.9245324,2.0669738,-2538.5827,-2147.9532)"
       gradientUnits="userSpaceOnUse" />
    <radialGradient
       inkscape:collect="always"
       xlink:href="#linearGradient2996"
       id="radialGradient3057"
       gradientUnits="userSpaceOnUse"
       gradientTransform="matrix(23.378309,0.75821341,-0.08913786,2.2659412,-3810.6283,-937.73507)"
       cx="170.24475"
       cy="606.15558"
       fx="170.24475"
       fy="606.15558"
       r="25.578272" />
    <radialGradient
       inkscape:collect="always"
       xlink:href="#linearGradient2996"
       id="radialGradient3063"
       gradientUnits="userSpaceOnUse"
       gradientTransform="matrix(20.485641,-0.29665848,-0.03660678,6.798797,-3383.1078,-3640.7529)"
       cx="178.04907"
       cy="638.08392"
       fx="178.04907"
       fy="638.08392"
       r="25.578272" />
    <radialGradient
       inkscape:collect="always"
       xlink:href="#linearGradient2996"
       id="radialGradient3067"
       gradientUnits="userSpaceOnUse"
       gradientTransform="matrix(23.378309,0.75821341,-0.08913786,2.2659412,-3810.6283,-937.73507)"
       cx="170.24475"
       cy="606.15558"
       fx="170.24475"
       fy="606.15558"
       r="25.578272" />
    <radialGradient
       inkscape:collect="always"
       xlink:href="#linearGradient2996"
       id="radialGradient3071"
       gradientUnits="userSpaceOnUse"
       gradientTransform="matrix(23.378309,0.75821341,-0.08913786,2.2659412,-3810.6283,-937.73507)"
       cx="170.24475"
       cy="606.15558"
       fx="170.24475"
       fy="606.15558"
       r="25.578272" />
    <radialGradient
       inkscape:collect="always"
       xlink:href="#linearGradient2996"
       id="radialGradient3075"
       gradientUnits="userSpaceOnUse"
       gradientTransform="matrix(23.378309,0.75821341,-0.08913786,2.2659412,-3810.6283,-937.73507)"
       cx="170.24475"
       cy="606.15558"
       fx="170.24475"
       fy="606.15558"
       r="25.578272" />
    <radialGradient
       inkscape:collect="always"
       xlink:href="#linearGradient2996"
       id="radialGradient3079"
       gradientUnits="userSpaceOnUse"
       gradientTransform="matrix(23.378309,0.75821341,-0.08913786,2.2659412,-3810.6283,-937.73507)"
       cx="170.24475"
       cy="606.15558"
       fx="170.24475"
       fy="606.15558"
       r="25.578272" />
    <radialGradient
       inkscape:collect="always"
       xlink:href="#linearGradient2996"
       id="radialGradient3087"
       gradientUnits="userSpaceOnUse"
       gradientTransform="matrix(17.533777,0.21138745,-0.38779539,10.357738,-2624.985,-5096.2239)"
       cx="175.99477"
       cy="525.8075"
       fx="175.99477"
       fy="525.8075"
       r="25.578272" />
    <radialGradient
       inkscape:collect="always"
       xlink:href="#linearGradient2996"
       id="radialGradient3003"
       cx="204.67763"
       cy="441.29971"
       fx="204.67763"
       fy="441.29971"
       r="181.10352"
       gradientTransform="matrix(6.3959637,0.77558562,-0.22280699,1.8430456,-1017.7102,-538.89533)"
       gradientUnits="userSpaceOnUse" />
    <radialGradient
       inkscape:collect="always"
       xlink:href="#linearGradient2996"
       id="radialGradient3017"
       gradientUnits="userSpaceOnUse"
       gradientTransform="matrix(6.3959637,0.77558562,-0.22280699,1.8430456,-1017.7102,-538.89533)"
       cx="204.67763"
       cy="441.29971"
       fx="204.67763"
       fy="441.29971"
       r="181.10352" />
    <radialGradient
       inkscape:collect="always"
       xlink:href="#linearGradient2996"
       id="radialGradient3019"
       gradientUnits="userSpaceOnUse"
       gradientTransform="matrix(6.3959637,0.77558562,-0.22280699,1.8430456,-1017.7102,-538.89533)"
       cx="204.67763"
       cy="441.29971"
       fx="204.67763"
       fy="441.29971"
       r="181.10352" />
    <radialGradient
       inkscape:collect="always"
       xlink:href="#linearGradient2996"
       id="radialGradient3021"
       gradientUnits="userSpaceOnUse"
       gradientTransform="matrix(6.3959637,0.77558562,-0.22280699,1.8430456,-1017.7102,-538.89533)"
       cx="204.67763"
       cy="441.29971"
       fx="204.67763"
       fy="441.29971"
       r="181.10352" />
    <radialGradient
       inkscape:collect="always"
       xlink:href="#linearGradient2996"
       id="radialGradient3023"
       gradientUnits="userSpaceOnUse"
       gradientTransform="matrix(6.3959637,0.77558562,-0.22280699,1.8430456,-1017.7102,-538.89533)"
       cx="204.67763"
       cy="441.29971"
       fx="204.67763"
       fy="441.29971"
       r="181.10352" />
    <radialGradient
       inkscape:collect="always"
       xlink:href="#linearGradient2996"
       id="radialGradient3025"
       gradientUnits="userSpaceOnUse"
       gradientTransform="matrix(6.3959637,0.77558562,-0.22280699,1.8430456,-1017.7102,-538.89533)"
       cx="204.67763"
       cy="441.29971"
       fx="204.67763"
       fy="441.29971"
       r="181.10352" />
    <radialGradient
       inkscape:collect="always"
       xlink:href="#linearGradient2996"
       id="radialGradient3027"
       gradientUnits="userSpaceOnUse"
       gradientTransform="matrix(6.3959637,0.77558562,-0.22280699,1.8430456,-1017.7102,-538.89533)"
       cx="204.67763"
       cy="441.29971"
       fx="204.67763"
       fy="441.29971"
       r="181.10352" />
  </defs>
  <sodipodi:namedview
     id="base"
     pagecolor="#ffffff"
     bordercolor="#666666"
     borderopacity="1.0"
     inkscape:pageopacity="0.0"
     inkscape:pageshadow="2"
     inkscape:zoom="0.98994949"
     inkscape:cx="373.27805"
     inkscape:cy="111.91143"
     inkscape:document-units="px"
     inkscape:current-layer="flowRoot2995"
     showgrid="false"
     inkscape:window-width="1280"
     inkscape:window-height="1002"
     inkscape:window-x="2716"
     inkscape:window-y="1703"
     inkscape:window-maximized="1"
     fit-margin-top="0"
     fit-margin-left="0"
     fit-margin-right="0"
     fit-margin-bottom="0" />
  <metadata
     id="metadata7">
    <rdf:RDF>
      <cc:Work
         rdf:about="">
        <dc:format>image/svg+xml</dc:format>
        <dc:type
           rdf:resource="http://purl.org/dc/dcmitype/StillImage" />
        <dc:title />
      </cc:Work>
    </rdf:RDF>
  </metadata>
  <g
     inkscape:label="Layer 1"
     inkscape:groupmode="layer"
     id="layer1"
     transform="translate(-73.76635,-340.56855)">
    <path
       id="path3077"
       style="fill:url(#radialGradient3087);fill-opacity:1"
       d="m 485,603.79077 c 0,5.91734 -5.43654,10.71429 -12.14285,10.71429 -6.70632,0 -12.14286,-4.79695 -12.14286,-10.71429 0,-5.91734 5.43654,-10.71428 12.14286,-10.71428 6.70631,0 12.14285,4.79694 12.14285,10.71428 z m -35.1139,0.2784 c 0,6.27301 -5.7633,11.35828 -12.87269,11.35828 -7.10941,0 -12.87271,-5.08527 -12.87271,-11.35828 0,-6.273 5.7633,-11.35826 12.87271,-11.35826 7.10939,0 12.87269,5.08526 12.87269,11.35826 z m 129.95674,-76.71739 c 0,6.75707 -6.20803,12.23475 -13.86603,12.23475 -7.658,0 -13.86603,-5.47768 -13.86603,-12.23475 0,-6.75706 6.20803,-12.23473 13.86603,-12.23473 7.658,0 13.86603,5.47767 13.86603,12.23473 z m -36.36431,1.19856 c 0,7.46839 -6.86156,13.52271 -15.32572,13.52271 -8.46417,0 -15.32573,-6.05432 -15.32573,-13.52271 0,-7.46838 6.86156,-13.52269 15.32573,-13.52269 8.46416,0 15.32572,6.05431 15.32572,13.52269 z m 87.80943,-197.71735 c 0,8.30669 -7.63174,15.04058 -17.04598,15.04058 -9.41425,0 -17.046,-6.73389 -17.046,-15.04058 0,-8.30669 7.63175,-15.04058 17.046,-15.04058 9.41424,0 17.04598,6.73389 17.04598,15.04058 z M 429.43494,651.87281 C 297.65323,663.25821 170.27388,557.60129 142.5641,413.92303 c -18.68162,-96.86622 11.09743,-194.36772 76.89588,-251.76976 17.23841,-15.03865 52.31772,-37.14203 53.89252,-33.95754 0.61115,1.23678 -6.75252,9.52932 -16.36452,18.42826 -33.73598,31.23337 -62.72683,79.22436 -73.97711,122.46056 l -5.27921,20.28859 9.10691,6.66871 c 32.75633,23.98641 117.12591,29.95475 293.3941,20.75483 45.63703,-2.38192 85.87621,-2.55993 89.64848,-2.70578 25.62188,-0.99066 22.43611,31.92284 6.70896,33.06223 -11.79245,0.85433 -91.12324,7.14588 -173.89646,9.38759 -114.56986,3.10283 -187.27091,-5.38677 -220.48286,-25.74675 -9.3956,-5.75979 -9.86087,-5.74002 -9.54665,0.40602 0.46595,9.1134 18.83628,20.40213 45.24109,27.80106 35.05574,9.823 82.73249,13.4466 167.38032,12.72152 l 74.58333,-0.19002 8.25356,4.08421 c 12.57865,6.22444 8.82815,24.68497 0.12662,29.15833 -7.55121,3.88197 -120.5127,5.40265 -162.77491,2.52947 -55.88222,-3.79919 -90.94616,-11.46026 -115.18931,-25.16759 l -17.09333,-9.66477 0.67496,9.80049 c 0.52788,7.66497 4.28672,31.51094 6.11267,37.21896 1.82596,5.70803 5.74176,17.94898 5.74176,17.94898 l 13.85067,7.33098 c 36.54697,19.34384 94.83306,29.43196 176.64808,28.90556 18.35818,-0.11806 35.0049,1.26308 36.99269,3.06934 5.73744,5.21343 9.32485,13.94831 7.74429,18.85629 -2.76801,8.59536 -13.75537,10.74688 -52.9633,10.37117 -67.53129,-0.64713 -124.90621,-9.76399 -153.15348,-24.33605 l -11.88917,-6.13335 3.91884,7.76002 c 3.05963,6.0586 9.00972,9.62036 27.13879,16.24543 45.04407,16.46083 102.70026,21.40769 199.33165,17.1026 51.44454,-2.29195 62.15815,-1.86916 66.87118,2.63894 5.76407,6.05675 5.74985,17.6337 -1.94715,22.0023 -5.30192,2.72567 -61.44887,5.76923 -112.77621,6.1133 -54.54405,0.36563 -99.73173,-4.36811 -130.03834,-13.62243 -19.9145,-6.08103 -22.09557,-6.20478 -18.11233,-1.02779 5.97622,7.76724 35.39233,17.19122 65.20973,20.89107 13.19407,1.63718 26.16886,3.92422 28.83285,5.08236 6.80413,2.95794 14.89277,14.3186 14.2479,20.01148 -0.6203,5.47616 -12.6607,4.86593 -50.81374,-2.57536 -20.78933,-4.05472 -21.42068,-3.99184 -13.98218,1.3923 9.82194,7.10932 38.91976,12.95532 73.45447,14.75767 42.04636,2.19438 47.36566,3.02946 54.56466,8.56628 5.20988,4.00697 6.50614,6.35589 5.64267,10.22485 -0.95253,4.26788 -3.52601,5.03354 -17.12222,5.09407 -8.80066,0.0392 -25.59029,-0.8943 -37.31028,-2.07437 -11.71998,-1.18008 -23.44759,-2.30687 -26.06136,-2.50399 -2.61377,-0.19715 4.35549,3.89874 15.4872,9.10192 23.00863,10.75469 53.46178,19.06657 83.7996,22.87218 30.08749,3.77424 29.31121,5.45031 -3.85144,8.31541 z M 513.9143,453.54624 c -82.91959,4.61738 -145.54382,7.25544 -187.93202,5.5349 -44.30045,-1.79814 -52.4358,-3.98489 -58.34314,-15.68248 -4.34756,-8.60894 -3.31751,-20.47831 2.01505,-23.21971 1.03065,-0.52985 15.70114,0.55543 32.65001,1.80233 45.77588,3.36763 145.01936,-1.07319 188.26118,-2.34698 76.3715,-2.24968 103.53798,-1.9968 119.38532,-3.1392 22.28013,-1.60613 25.92437,29.41203 4.23026,31.37871 -9.08218,0.82336 -57.07766,3.26743 -100.26666,5.67243 z M 670.18032,431.7204 c 0,8.30669 -7.63175,15.04059 -17.04598,15.04059 -9.41425,0 -17.046,-6.7339 -17.046,-15.04059 0,-8.30669 7.63175,-15.04058 17.046,-15.04058 9.41423,0 17.04598,6.73389 17.04598,15.04058 z m 37.83364,-2.60762 c 0,7.46838 -6.86156,13.5227 -15.32572,13.5227 -8.46417,0 -15.32573,-6.05432 -15.32573,-13.5227 0,-7.46839 6.86156,-13.5227 15.32573,-13.5227 8.46416,0 15.32572,6.05431 15.32572,13.5227 z"
       inkscape:connector-curvature="0"
       sodipodi:nodetypes="ssssssssssssssssssssssssscsscsscssssssssccsssscszcsssssscsssccssssssssssssssssccsssssssssssssssssss"
       transform="matrix(0.67029331,0.34153149,-0.33850128,0.66434617,127.09361,163.09974)" />
    <g
       transform="matrix(1.2537882,0,0,1.2537882,-97.624339,-103.92285)"
       style="font-size:100px;font-style:normal;font-weight:normal;line-height:125%;letter-spacing:0px;word-spacing:0px;fill:url(#radialGradient3003);fill-opacity:1;stroke:none;font-family:Sans"
       id="flowRoot2995">
      <path
         d="m 312.20703,446.32167 -3.41797,-8.98437 -29.10156,0 -3.41797,9.17968 c -1.33465,3.58074 -2.47397,5.99773 -3.41797,7.25098 -0.94402,1.25326 -2.49024,1.87988 -4.63867,1.87988 -1.82292,0 -3.43425,-0.66731 -4.83398,-2.00195 -1.39975,-1.33463 -2.09962,-2.8483 -2.09961,-4.54102 -10e-6,-0.97655 0.16275,-1.98567 0.48828,-3.02734 0.32552,-1.04166 0.86262,-2.49022 1.61133,-4.3457 l 18.31054,-46.48438 c 0.52081,-1.33457 1.14744,-2.93776 1.87989,-4.80957 0.73239,-1.87168 1.51364,-3.42604 2.34375,-4.66308 0.83005,-1.23691 1.92054,-2.23789 3.27148,-3.00293 1.35088,-0.7649 3.01917,-1.14739 5.00488,-1.14746 2.01819,7e-5 3.70276,0.38256 5.05371,1.14746 1.35087,0.76504 2.44137,1.74974 3.27149,2.9541 0.83003,1.20449 1.5299,2.49844 2.09961,3.88183 0.56961,1.38353 1.2939,3.23086 2.17285,5.542 l 18.70117,46.1914 c 1.46478,3.51564 2.1972,6.07097 2.19727,7.66602 -7e-5,1.66016 -0.6918,3.18197 -2.0752,4.56543 -1.38353,1.38346 -3.05182,2.07519 -5.00488,2.07519 -1.13939,0 -2.11595,-0.20345 -2.92969,-0.61035 -0.81386,-0.4069 -1.49745,-0.96028 -2.05078,-1.66015 -0.55344,-0.69987 -1.14752,-1.77409 -1.78223,-3.22266 -0.63482,-1.44856 -1.18006,-2.72623 -1.63574,-3.83301 z m -28.71094,-19.87305 21.38672,0 -10.79101,-29.54101 z"
         style="fill:url(#radialGradient3017);font-family:Arial Rounded MT Bold;-inkscape-font-specification:Arial Rounded MT Bold"
         id="path3001"
         inkscape:connector-curvature="0" />
      <path
         d="m 371.97266,448.12831 0,-1.70898 c -1.5951,2.01823 -3.27153,3.71094 -5.0293,5.07812 -1.75785,1.36719 -3.67842,2.38444 -5.76172,3.05176 -2.08336,0.66732 -4.45966,1.00098 -7.12891,1.00098 -3.22267,0 -6.11167,-0.66732 -8.66699,-2.00196 -2.55535,-1.33463 -4.53289,-3.17382 -5.93262,-5.51757 -1.66016,-2.83203 -2.49024,-6.90103 -2.49023,-12.20704 l 0,-26.41601 c -1e-5,-2.66922 0.60221,-4.66304 1.80664,-5.98145 1.20442,-1.3183 2.79947,-1.97748 4.78516,-1.97754 2.01821,6e-5 3.64581,0.66737 4.88281,2.00196 1.23696,1.33468 1.85545,3.32036 1.85547,5.95703 l 0,21.33789 c -2e-5,3.09247 0.2604,5.68849 0.78125,7.78809 0.52081,2.09962 1.45668,3.7435 2.80762,4.93164 1.35088,1.18816 3.18194,1.78223 5.49316,1.78222 2.24606,10e-6 4.36195,-0.66731 6.34766,-2.00195 1.98564,-1.33462 3.4342,-3.07616 4.3457,-5.22461 0.74866,-1.888 1.12301,-6.02211 1.12305,-12.40234 l 0,-16.21094 c -4e-5,-2.63667 0.61844,-4.62235 1.85546,-5.95703 1.23694,-1.33459 2.84827,-2.0019 4.83399,-2.00196 1.98563,6e-5 3.58068,0.65924 4.78516,1.97754 1.20437,1.31841 1.80658,3.31223 1.80664,5.98145 l 0,38.62305 c -6e-5,2.53906 -0.57786,4.44336 -1.7334,5.71289 -1.15565,1.26953 -2.64491,1.90429 -4.46778,1.90429 -1.82296,0 -3.32849,-0.65918 -4.5166,-1.97754 -1.18819,-1.31835 -1.78227,-3.16568 -1.78222,-5.54199 z"
         style="fill:url(#radialGradient3019);font-family:Arial Rounded MT Bold;-inkscape-font-specification:Arial Rounded MT Bold"
         id="path3003"
         inkscape:connector-curvature="0" />
      <path
         d="m 434.22852,448.03066 0,-1.31836 c -1.79041,2.05078 -3.55636,3.71908 -5.29786,5.00488 -1.74157,1.28581 -3.62959,2.26237 -5.66406,2.92969 -2.03453,0.66731 -4.25621,1.00097 -6.66504,1.00097 -3.19012,0 -6.14422,-0.67545 -8.8623,-2.02636 -2.71812,-1.35091 -5.07,-3.27962 -7.05567,-5.78614 -1.98568,-2.5065 -3.49121,-5.45246 -4.5166,-8.83789 -1.02539,-3.3854 -1.53809,-7.0475 -1.53808,-10.98633 -1e-5,-8.33329 2.0345,-14.82743 6.10351,-19.48242 4.069,-4.65489 9.42381,-6.98237 16.06445,-6.98242 3.84112,5e-5 7.08005,0.65923 9.7168,1.97754 2.63668,1.31841 5.20829,3.34477 7.71485,6.0791 l 0,-19.67773 c -5e-5,-2.73431 0.5452,-4.80137 1.63574,-6.20117 1.09045,-1.39967 2.64481,-2.09954 4.66308,-2.09961 2.01818,7e-5 3.57254,0.64297 4.66309,1.92871 1.09044,1.28587 1.63569,3.18203 1.63574,5.68847 l 0,58.78907 c -5e-5,2.53906 -0.58599,4.44336 -1.75781,5.71289 -1.17193,1.26953 -2.6856,1.90429 -4.54102,1.90429 -1.82296,0 -3.32849,-0.65918 -4.5166,-1.97754 -1.18819,-1.31835 -1.78227,-3.19823 -1.78222,-5.63964 z m -26.22071,-19.58008 c -1e-5,3.6133 0.56151,6.68947 1.68457,9.22851 1.12303,2.53908 2.66111,4.45151 4.61426,5.73731 1.9531,1.28582 4.08526,1.92872 6.39648,1.92871 2.34372,1e-5 4.48402,-0.61034 6.4209,-1.83106 1.93681,-1.22069 3.48304,-3.09243 4.63868,-5.61523 1.15555,-2.52277 1.73335,-5.67218 1.73339,-9.44824 -4e-5,-3.54815 -0.57784,-6.5999 -1.73339,-9.15528 -1.15564,-2.5553 -2.71814,-4.50842 -4.6875,-5.85937 -1.96944,-1.35087 -4.12601,-2.02632 -6.46973,-2.02637 -2.44143,5e-5 -4.62242,0.69178 -6.54297,2.0752 -1.92059,1.3835 -3.40985,3.36918 -4.46777,5.95703 -1.05796,2.58792 -1.58693,5.59085 -1.58692,9.00879 z"
         style="fill:url(#radialGradient3021);font-family:Arial Rounded MT Bold;-inkscape-font-specification:Arial Rounded MT Bold"
         id="path3005"
         inkscape:connector-curvature="0" />
      <path
         d="m 493.89648,448.12831 c -3.22269,2.50652 -6.33955,4.3864 -9.35058,5.63965 -3.0111,1.25326 -6.38837,1.87988 -10.13184,1.87988 -3.41798,0 -6.42091,-0.67545 -9.00879,-2.02636 -2.5879,-1.35091 -4.58171,-3.18197 -5.98144,-5.49317 -1.39975,-2.31119 -2.09962,-4.8177 -2.09961,-7.51953 -1e-5,-3.64581 1.15559,-6.75454 3.4668,-9.32617 2.31118,-2.57159 5.48501,-4.29685 9.52148,-5.17578 0.84634,-0.19529 2.94594,-0.63474 6.29883,-1.31836 3.35284,-0.68357 6.22555,-1.31019 8.61816,-1.87988 2.39255,-0.56963 4.98857,-1.26136 7.78809,-2.0752 -0.1628,-3.51559 -0.87081,-6.09534 -2.12403,-7.73926 -1.25329,-1.64383 -3.84931,-2.46577 -7.78808,-2.46582 -3.38544,5e-5 -5.93264,0.47205 -7.6416,1.41602 -1.70901,0.94405 -3.17385,2.36006 -4.39453,4.24804 -1.22072,1.88806 -2.08335,3.13318 -2.58789,3.73536 -0.50458,0.60224 -1.58693,0.90335 -3.24708,0.90332 -1.4974,3e-5 -2.79135,-0.48011 -3.88183,-1.44043 -1.0905,-0.96025 -1.63575,-2.18909 -1.63574,-3.68653 -10e-6,-2.34371 0.83007,-4.62235 2.49023,-6.83593 1.66015,-2.2135 4.24803,-4.03641 7.76367,-5.46875 3.51561,-1.43224 7.89386,-2.14839 13.13477,-2.14844 5.85934,5e-5 10.46545,0.69178 13.81836,2.07519 3.35282,1.38352 5.72098,3.57264 7.10449,6.56739 1.38341,2.99483 2.07514,6.96618 2.0752,11.91406 -6e-5,3.12503 -0.008,5.77802 -0.0244,7.95898 -0.0163,2.18102 -0.0407,4.60614 -0.0732,7.27539 -5e-5,2.50653 0.41499,5.11883 1.24512,7.83692 0.83002,2.7181 1.24506,4.46778 1.24511,5.24902 -5e-5,1.36719 -0.64295,2.61231 -1.92871,3.73535 -1.28586,1.12305 -2.74256,1.68457 -4.37011,1.68457 -1.36724,0 -2.71815,-0.6429 -4.05274,-1.92871 -1.33468,-1.2858 -2.75069,-3.14941 -4.24805,-5.59082 z m -0.8789,-19.28711 c -1.95316,0.71617 -4.79333,1.47301 -8.52051,2.27051 -3.72724,0.79755 -6.30699,1.38349 -7.73926,1.75781 -1.43231,0.37437 -2.7995,1.10679 -4.10156,2.19727 -1.3021,1.09051 -1.95314,2.61232 -1.95313,4.56543 -1e-5,2.01824 0.76496,3.73536 2.29493,5.15137 1.52992,1.41602 3.53187,2.12403 6.00586,2.12402 2.63669,1e-5 5.06995,-0.57779 7.2998,-1.7334 2.22978,-1.15559 3.86552,-2.64484 4.90723,-4.46777 1.20439,-2.01822 1.8066,-5.33853 1.80664,-9.96094 z"
         style="fill:url(#radialGradient3023);font-family:Arial Rounded MT Bold;-inkscape-font-specification:Arial Rounded MT Bold"
         id="path3007"
         inkscape:connector-curvature="0" />
      <path
         d="m 567.38281,439.14394 c -5e-5,1.66017 -0.49647,3.43425 -1.48926,5.32226 -0.99289,1.88803 -2.50656,3.68653 -4.54101,5.39551 -2.03455,1.70899 -4.59803,3.08431 -7.69043,4.12598 -3.09249,1.04166 -6.57556,1.5625 -10.44922,1.5625 -8.2357,0 -14.66473,-2.40072 -19.28711,-7.20215 -4.6224,-4.80142 -6.9336,-11.23859 -6.93359,-19.31152 -1e-5,-5.46872 1.05793,-10.3027 3.17383,-14.50196 2.11587,-4.19917 5.17576,-7.44624 9.17968,-9.74121 4.00389,-2.29487 8.78904,-3.44233 14.35547,-3.44238 3.45049,5e-5 6.61618,0.50461 9.49707,1.51367 2.88082,1.00917 5.32222,2.31125 7.32422,3.90625 2.0019,1.5951 3.53185,3.29594 4.58984,5.10254 1.05789,1.80668 1.58686,3.49125 1.58692,5.05371 -6e-5,1.59509 -0.59413,2.946 -1.78223,4.05273 -1.1882,1.10681 -2.62863,1.66019 -4.32129,1.66016 -1.10681,3e-5 -2.02641,-0.2848 -2.75879,-0.85449 -0.73246,-0.56963 -1.5544,-1.48922 -2.46582,-2.75879 -1.62764,-2.47392 -3.32849,-4.32939 -5.10254,-5.56641 -1.77412,-1.23693 -4.02835,-1.85542 -6.76269,-1.85547 -3.93883,5e-5 -7.11265,1.53813 -9.52149,4.61426 -2.40887,3.07621 -3.61329,7.28356 -3.61328,12.62207 -10e-6,2.50654 0.30923,4.80959 0.92774,6.90918 0.61847,2.09963 1.51365,3.88999 2.68554,5.3711 1.17186,1.48113 2.58787,2.60417 4.24805,3.36914 1.66013,0.76498 3.48305,1.14747 5.46875,1.14746 2.66924,10e-6 4.95602,-0.61848 6.86035,-1.85547 1.90426,-1.23697 3.58883,-3.12499 5.05371,-5.66406 0.81376,-1.49738 1.69267,-2.66926 2.63672,-3.51563 0.94397,-0.84633 2.09956,-1.26951 3.4668,-1.26953 1.62755,2e-5 2.97846,0.61851 4.05273,1.85547 1.07417,1.237 1.61128,2.55535 1.61133,3.95508 z"
         style="fill:url(#radialGradient3025);font-family:Arial Rounded MT Bold;-inkscape-font-specification:Arial Rounded MT Bold"
         id="path3009"
         inkscape:connector-curvature="0" />
      <path
         d="m 591.25977,457.308 1.2207,-2.97852 -16.40625,-41.30859 c -1.00912,-2.37626 -1.51368,-4.10152 -1.51367,-5.17578 -1e-5,-1.13928 0.29296,-2.19722 0.8789,-3.17383 0.58594,-0.97651 1.3916,-1.75776 2.417,-2.34375 1.02538,-0.58588 2.09146,-0.87885 3.19824,-0.87891 1.92056,6e-5 3.36913,0.61041 4.3457,1.83106 0.97655,1.22075 1.83918,2.97043 2.58789,5.24902 l 11.2793,32.8125 10.69336,-30.51758 c 0.84631,-2.47391 1.61129,-4.41075 2.29492,-5.81054 0.68355,-1.39969 1.40784,-2.3437 2.17285,-2.83203 0.76493,-0.48823 1.84729,-0.73237 3.24707,-0.73243 1.00907,6e-5 1.97749,0.26861 2.90527,0.80567 0.92769,0.53716 1.64383,1.26144 2.14844,2.17285 0.50451,0.91151 0.75679,1.87179 0.75684,2.88086 -0.13026,0.61854 -0.34185,1.49744 -0.63477,2.63672 -0.29302,1.13936 -0.65109,2.29496 -1.07422,3.4668 l -17.38281,45.50781 c -1.49743,4.0039 -2.96227,7.14517 -4.39453,9.42383 -1.43232,2.27863 -3.32848,4.0283 -5.68848,5.24902 -2.36004,1.22068 -5.54201,1.83103 -9.5459,1.83105 -3.90625,-2e-5 -6.83594,-0.42319 -8.78906,-1.26953 -1.95312,-0.84637 -2.92969,-2.39259 -2.92969,-4.63867 0,-1.52996 0.46387,-2.70997 1.39161,-3.54004 0.92773,-0.83009 2.30305,-1.24513 4.12597,-1.24512 0.71614,-1e-5 1.41601,0.0976 2.09961,0.29297 0.84635,0.19531 1.57877,0.29296 2.19727,0.29297 1.52993,-10e-6 2.73436,-0.22787 3.61328,-0.68359 0.87889,-0.45574 1.66828,-1.24513 2.36816,-2.36817 0.69986,-1.12305 1.50552,-2.77507 2.417,-4.95605 z"
         style="fill:url(#radialGradient3027);font-family:Arial Rounded MT Bold;-inkscape-font-specification:Arial Rounded MT Bold"
         id="path3011"
         inkscape:connector-curvature="0" />
    </g>
  </g>
</svg>
